<?xml version="1.0" encoding="utf-8"?>
<!-- Generator: Adobe Illustrator 23.0.0, SVG Export Plug-In . SVG Version: 6.00 Build 0)  -->
<svg version="1.1" id="图层_1" xmlns="http://www.w3.org/2000/svg" xmlns:xlink="http://www.w3.org/1999/xlink" x="0px" y="0px"
	 viewBox="0 0 1025 1024" style="enable-background:new 0 0 1025 1024;" xml:space="preserve">
<style type="text/css">
	.st0{fill:#343231;}
	.st1{fill:#0AA2FF;}
	.st2{font-family:'MicrosoftYaHei-Bold';}
	.st3{font-size:140px;}
	.st4{fill:#FFB05F;}
	.st5{font-size:130px;}
	.st6{fill:#00DCF4;}
	.st7{font-size:160px;}
</style>
<path class="st0" d="M970.7,405.2L873,385.7c-4.9-14.1-10.7-27.8-17.2-41.2l55.6-83c16.8-25.3,13.5-59-8-80.5l-61.6-61.9
	c-21.5-21.5-55.2-24.8-80.5-8l-83,55.6c-13.4-6.5-27.1-12.3-41.2-17.2l-19.5-98c-6-30.3-32.9-52-63.9-51.4h-85.9
	c-30.9-0.6-57.8,21.1-63.9,51.4l-19.5,98c-14.1,4.9-27.8,10.7-41.2,17.2l-82.1-55.6c-25.3-16.8-59-13.5-80.5,8l-61.6,61.6
	c-21.5,21.5-24.8,55.2-8,80.5l55.6,83c-6.5,13.4-12.3,27.1-17.2,41.2l-98,19.5c-30.3,6-52,32.9-51.4,63.9v86.8
	c-0.6,30.9,21.1,57.8,51.4,63.9l98,19.5c4.9,14.1,10.7,27.8,17.2,41.2l-55.6,83c-16.8,25.3-13.5,59,8,80.5l61.3,61.3
	c21.5,21.5,55.2,24.8,80.5,8l83-55.6c13.4,6.6,27.1,12.3,41.2,17.2l19.5,98c6,30.3,32.9,52,63.9,51.4h86.8
	c30.9,0.6,57.8-21.1,63.9-51.4l19.8-98c14.1-4.9,27.8-10.7,41.2-17.2l83,55.6c25.3,16.8,59,13.5,80.5-8l61.3-61.3
	c21.5-21.5,24.8-55.2,8-80.5l-55.6-83c6.6-13.4,12.3-27.1,17.2-41.2l97.7-19.5c30.3-6,52-32.9,51.4-63.9v-87.8
	C1023.5,436.8,1001.2,410.5,970.7,405.2L970.7,405.2z M860.2,575.1c-22.2,4.4-40.4,20.2-47.9,41.5c-4,11.4-8.5,22.6-13.7,33.5
	c-10.2,20.5-8.6,44.9,4.2,63.9l55.6,83L797,858.3l-83-55.6c-18.9-12.8-43.3-14.5-63.9-4.5c-11.2,5.5-22.7,10.3-34.5,14.4
	c-21.3,7.5-37.1,25.7-41.5,47.9l-19.5,97.7h-86.8l-20.4-98c-4.4-22.2-20.2-40.4-41.5-47.9c-11.4-3.9-22.6-8.5-33.5-13.7
	c-20.6-10.1-44.9-8.4-63.9,4.5l-83,55.6l-61-61.9l55.6-83c12.8-18.9,14.5-43.3,4.5-63.9c-5.5-11.2-10.3-22.7-14.4-34.5
	c-7.9-20.8-26-36.1-47.9-40.2l-98-20.4v-86.8l98-20.4c22.2-4.4,40.4-20.2,47.9-41.5c3.9-11.4,8.5-22.6,13.7-33.5
	c10.1-20.6,8.4-44.9-4.5-63.9l-54.9-82.7l61.3-61.3l83,55.6c18.9,12.8,43.3,14.5,63.9,4.5c11.1-5.4,22.5-10.2,34.2-14.4
	c21-7.8,36.4-25.9,40.6-47.9l20.4-98h86.8l20.4,98c4.4,22.2,20.2,40.4,41.5,47.9c11.4,3.9,22.6,8.5,33.5,13.7
	c20.6,10.1,44.9,8.4,63.9-4.5l83-55.6l61.3,61.3l-55.6,83c-12.8,18.9-14.5,43.3-4.5,63.9c5.5,11.2,10.3,22.7,14.4,34.5
	c7.5,21.3,25.7,37.1,47.9,41.5l97.7,19.5v86.8L860.2,575.1z"/>
<path class="st0" d="M511.2,287.7c-123.4,0-223.5,100.1-223.5,223.5s100.1,223.5,223.5,223.5s223.5-100.1,223.5-223.5l0,0
	C734.7,387.8,634.6,287.7,511.2,287.7L511.2,287.7L511.2,287.7z M511.2,706.9c-108.1,0-195.7-87.6-195.7-195.7
	s87.6-195.7,195.7-195.7s195.7,87.6,195.7,195.7l0,0C706.9,619.3,619.3,706.9,511.2,706.9z"/>
<path class="st0" d="M511.2,383.5c-70.5,0-127.7,57.2-127.7,127.7s57.2,127.7,127.7,127.7s127.7-57.2,127.7-127.7
	S581.7,383.5,511.2,383.5L511.2,383.5z M511.2,607c-52.9,0-95.8-42.9-95.8-95.8s42.9-95.8,95.8-95.8s95.8,42.9,95.8,95.8l0,0
	C607,564.1,564.1,607,511.2,607z"/>
<text transform="matrix(1 0 0 1 295 408)" class="st1 st2 st3">Better</text>
<text transform="matrix(1 0 0 1 153 674)" class="st4 st2 st5">Technology</text>
<text transform="matrix(1 0 0 1 447 569)" class="st6 st2 st7">O</text>
</svg>
